<svg width="19" height="19" viewBox="0 0 19 19" fill="none" xmlns="http://www.w3.org/2000/svg">
<path d="M7.91667 13.75L15.2604 6.40625L13.8021 4.94792L7.91667 10.8333L4.94792 7.86458L3.48958 9.32292L7.91667 13.75ZM2.08333 18.75C1.51042 18.75 1.01997 18.546 0.611979 18.138C0.203993 17.73 0 17.2396 0 16.6667V2.08333C0 1.51042 0.203993 1.01997 0.611979 0.611979C1.01997 0.203993 1.51042 0 2.08333 0H16.6667C17.2396 0 17.73 0.203993 18.138 0.611979C18.546 1.01997 18.75 1.51042 18.75 2.08333V16.6667C18.75 17.2396 18.546 17.73 18.138 18.138C17.73 18.546 17.2396 18.75 16.6667 18.75H2.08333ZM2.08333 16.6667H16.6667V2.08333H2.08333V16.6667Z" fill="#471515"/>
</svg>
