<svg width="21" height="19" viewBox="0 0 21 19" fill="none" xmlns="http://www.w3.org/2000/svg">
<path d="M9.10897 2.76777H2.80199C2.32408 2.76777 1.86573 2.94336 1.52779 3.25592C1.18985 3.56848 1 3.99241 1 4.43443V16.1011C1 16.5431 1.18985 16.9671 1.52779 17.2796C1.86573 17.5922 2.32408 17.7678 2.80199 17.7678H15.416C15.8939 17.7678 16.3522 17.5922 16.6902 17.2796C17.0281 16.9671 17.2179 16.5431 17.2179 16.1011V10.2678M15.8665 1.51777C16.2249 1.18625 16.711 1 17.2179 1C17.7249 1 18.211 1.18625 18.5694 1.51777C18.9279 1.84929 19.1293 2.29893 19.1293 2.76777C19.1293 3.23661 18.9279 3.68625 18.5694 4.01777L10.01 11.9344L6.40598 12.7678L7.30698 9.43443L15.8665 1.51777Z" stroke="#471515" stroke-width="2" stroke-linecap="round" stroke-linejoin="round"/>
</svg>
