<svg width="780" height="787" viewBox="0 0 780 787" fill="none" xmlns="http://www.w3.org/2000/svg">
<g filter="url(#filter0_d_509_961)">
<ellipse cx="390" cy="391.158" rx="350" ry="335.842" fill="#FFFEFE"/>
</g>
<path d="M655.226 603.311C612.195 646.007 547.5 676.797 480.128 686.646H480.136C454.071 690.457 380.635 687.975 353.274 682.37C265.089 664.289 187.046 618.221 139.002 555.899C117.728 528.305 96.2007 484.415 87.8214 451.544C75.954 404.989 78.1159 325.658 92.4672 280.792C99.1292 260.004 127.602 198.731 138.028 182.78C151.505 162.136 178.406 133.622 196.675 120.617C250.002 82.6457 313.555 67.4155 408.885 69.7617C436.032 70.4343 458.241 70.7545 458.241 70.4743C458.241 70.194 449.448 58.4949 438.708 44.4657C417.096 16.2472 417.096 14.934 438.776 8.64009C471.143 -0.744736 504.875 16.1031 528.671 53.5543C534.199 62.2425 539.726 68.6966 540.952 67.8959C542.194 67.0951 552.199 51.4964 563.185 33.2233C574.171 14.9501 583.753 0 584.482 0C585.21 0 592.531 5.99757 600.75 13.3245L615.683 26.657L593.175 52.4253C567.953 81.2685 567.156 86.9538 589.112 81.1723C618.382 73.4851 649.116 80.6438 673.571 100.871C685.515 110.752 702.972 134.847 700.25 137.689C699.369 138.618 677.888 137.898 652.527 136.088C627.167 134.278 605.955 133.277 605.403 133.862C604.843 134.438 614.84 143.439 627.62 153.865C701.109 213.809 740 292.923 740 382.472C740 468.304 708.445 550.502 655.226 603.311Z" fill="white"/>
<path d="M297.517 545.867V542.554H314.924V545.867H308.181V564.372H304.26V545.867H297.517ZM320.592 564.703C319.555 564.703 318.621 564.518 317.79 564.149C316.966 563.772 316.313 563.218 315.83 562.487C315.354 561.755 315.116 560.853 315.116 559.781C315.116 558.857 315.287 558.094 315.627 557.49C315.968 556.887 316.434 556.404 317.023 556.041C317.613 555.679 318.277 555.406 319.015 555.221C319.761 555.029 320.532 554.891 321.327 554.806C322.286 554.706 323.064 554.617 323.66 554.539C324.257 554.454 324.69 554.326 324.96 554.156C325.237 553.978 325.375 553.705 325.375 553.335V553.271C325.375 552.469 325.137 551.847 324.662 551.407C324.186 550.967 323.5 550.747 322.605 550.747C321.661 550.747 320.912 550.953 320.358 551.365C319.811 551.776 319.441 552.263 319.25 552.824L315.649 552.313C315.933 551.318 316.402 550.487 317.055 549.82C317.708 549.145 318.507 548.641 319.452 548.307C320.397 547.966 321.441 547.796 322.584 547.796C323.372 547.796 324.157 547.888 324.939 548.073C325.72 548.257 326.434 548.563 327.08 548.989C327.726 549.408 328.245 549.98 328.635 550.704C329.033 551.428 329.232 552.334 329.232 553.421V564.372H325.524V562.124H325.397C325.162 562.579 324.832 563.005 324.406 563.403C323.987 563.793 323.458 564.11 322.819 564.351C322.186 564.585 321.444 564.703 320.592 564.703ZM321.593 561.869C322.368 561.869 323.039 561.716 323.607 561.411C324.175 561.098 324.612 560.686 324.917 560.175C325.23 559.664 325.386 559.106 325.386 558.502V556.574C325.265 556.673 325.059 556.766 324.768 556.851C324.484 556.936 324.164 557.011 323.809 557.075C323.454 557.139 323.103 557.195 322.755 557.245C322.407 557.295 322.105 557.338 321.849 557.373C321.274 557.451 320.759 557.579 320.304 557.757C319.85 557.934 319.491 558.183 319.228 558.502C318.966 558.815 318.834 559.22 318.834 559.717C318.834 560.427 319.093 560.963 319.612 561.325C320.13 561.688 320.791 561.869 321.593 561.869ZM346.043 552.334L342.527 552.717C342.428 552.362 342.254 552.029 342.005 551.716C341.764 551.404 341.437 551.151 341.025 550.96C340.613 550.768 340.109 550.672 339.512 550.672C338.71 550.672 338.035 550.846 337.488 551.194C336.948 551.542 336.682 551.993 336.689 552.547C336.682 553.023 336.856 553.41 337.211 553.708C337.573 554.007 338.17 554.252 339.001 554.443L341.792 555.04C343.341 555.374 344.491 555.903 345.244 556.627C346.004 557.352 346.387 558.3 346.395 559.472C346.387 560.502 346.086 561.411 345.489 562.199C344.899 562.98 344.079 563.591 343.028 564.031C341.977 564.472 340.77 564.692 339.406 564.692C337.403 564.692 335.791 564.273 334.569 563.435C333.348 562.59 332.62 561.414 332.385 559.909L336.146 559.546C336.316 560.285 336.679 560.842 337.233 561.219C337.787 561.595 338.507 561.784 339.395 561.784C340.311 561.784 341.046 561.595 341.6 561.219C342.162 560.842 342.442 560.377 342.442 559.823C342.442 559.355 342.261 558.967 341.899 558.662C341.544 558.357 340.99 558.122 340.237 557.959L337.446 557.373C335.876 557.046 334.715 556.496 333.962 555.722C333.209 554.94 332.836 553.953 332.843 552.76C332.836 551.752 333.11 550.878 333.664 550.139C334.225 549.394 335.002 548.818 335.997 548.414C336.998 548.002 338.152 547.796 339.459 547.796C341.377 547.796 342.886 548.204 343.987 549.021C345.095 549.838 345.78 550.942 346.043 552.334ZM353.09 559.237L353.08 554.582H353.697L359.578 548.009H364.084L356.851 556.063H356.052L353.09 559.237ZM349.575 564.372V542.554H353.431V564.372H349.575ZM359.844 564.372L354.518 556.926L357.117 554.209L364.457 564.372H359.844ZM369.03 564.607C368.384 564.607 367.83 564.379 367.368 563.925C366.907 563.47 366.679 562.916 366.687 562.263C366.679 561.624 366.907 561.077 367.368 560.622C367.83 560.168 368.384 559.94 369.03 559.94C369.655 559.94 370.199 560.168 370.66 560.622C371.129 561.077 371.367 561.624 371.374 562.263C371.367 562.696 371.253 563.09 371.033 563.445C370.82 563.801 370.536 564.085 370.181 564.298C369.833 564.504 369.449 564.607 369.03 564.607ZM369.03 552.931C368.384 552.931 367.83 552.703 367.368 552.249C366.907 551.787 366.679 551.233 366.687 550.587C366.679 549.948 366.907 549.401 367.368 548.946C367.83 548.485 368.384 548.254 369.03 548.254C369.655 548.254 370.199 548.485 370.66 548.946C371.129 549.401 371.367 549.948 371.374 550.587C371.367 551.013 371.253 551.404 371.033 551.759C370.82 552.114 370.536 552.398 370.181 552.611C369.833 552.824 369.449 552.931 369.03 552.931ZM382.968 564.372V542.554H386.92V551.791H397.03V542.554H400.993V564.372H397.03V555.104H386.92V564.372H382.968ZM412.259 564.692C410.661 564.692 409.276 564.34 408.104 563.637C406.933 562.934 406.023 561.95 405.377 560.686C404.738 559.422 404.418 557.945 404.418 556.254C404.418 554.564 404.738 553.083 405.377 551.812C406.023 550.541 406.933 549.553 408.104 548.85C409.276 548.147 410.661 547.796 412.259 547.796C413.857 547.796 415.242 548.147 416.414 548.85C417.586 549.553 418.491 550.541 419.131 551.812C419.777 553.083 420.1 554.564 420.1 556.254C420.1 557.945 419.777 559.422 419.131 560.686C418.491 561.95 417.586 562.934 416.414 563.637C415.242 564.34 413.857 564.692 412.259 564.692ZM412.281 561.602C413.147 561.602 413.871 561.365 414.454 560.889C415.036 560.406 415.469 559.759 415.754 558.95C416.045 558.14 416.19 557.238 416.19 556.244C416.19 555.242 416.045 554.337 415.754 553.527C415.469 552.71 415.036 552.061 414.454 551.578C413.871 551.095 413.147 550.853 412.281 550.853C411.393 550.853 410.654 551.095 410.065 551.578C409.482 552.061 409.045 552.71 408.754 553.527C408.47 554.337 408.328 555.242 408.328 556.244C408.328 557.238 408.47 558.14 408.754 558.95C409.045 559.759 409.482 560.406 410.065 560.889C410.654 561.365 411.393 561.602 412.281 561.602ZM412.27 570.264C411.652 570.264 411.123 570.058 410.683 569.646C410.249 569.234 410.033 568.74 410.033 568.165C410.033 567.59 410.249 567.096 410.683 566.684C411.123 566.272 411.648 566.066 412.259 566.066C412.877 566.066 413.403 566.272 413.836 566.684C414.276 567.096 414.496 567.59 414.496 568.165C414.496 568.74 414.276 569.234 413.836 569.646C413.403 570.058 412.881 570.264 412.27 570.264ZM430.511 564.692C428.878 564.692 427.475 564.333 426.303 563.616C425.138 562.899 424.24 561.908 423.608 560.644C422.983 559.372 422.67 557.909 422.67 556.254C422.67 554.592 422.99 553.126 423.629 551.855C424.268 550.576 425.17 549.582 426.335 548.872C427.507 548.154 428.892 547.796 430.49 547.796C431.818 547.796 432.993 548.041 434.016 548.531C435.046 549.014 435.866 549.699 436.477 550.587C437.088 551.467 437.436 552.497 437.521 553.676H433.835C433.686 552.888 433.331 552.231 432.77 551.705C432.216 551.173 431.474 550.906 430.543 550.906C429.755 550.906 429.062 551.119 428.466 551.546C427.869 551.965 427.404 552.568 427.07 553.357C426.743 554.145 426.58 555.09 426.58 556.19C426.58 557.306 426.743 558.264 427.07 559.067C427.397 559.862 427.855 560.477 428.444 560.91C429.041 561.336 429.741 561.549 430.543 561.549C431.111 561.549 431.619 561.443 432.067 561.23C432.521 561.009 432.901 560.693 433.206 560.281C433.512 559.869 433.721 559.369 433.835 558.779H437.521C437.429 559.937 437.088 560.963 436.498 561.858C435.909 562.746 435.106 563.442 434.091 563.946C433.075 564.443 431.882 564.692 430.511 564.692ZM447.341 545.867V542.554H464.749V545.867H458.005V564.372H454.084V545.867H447.341ZM472.699 564.692C471.101 564.692 469.716 564.34 468.544 563.637C467.372 562.934 466.463 561.95 465.817 560.686C465.177 559.422 464.858 557.945 464.858 556.254C464.858 554.564 465.177 553.083 465.817 551.812C466.463 550.541 467.372 549.553 468.544 548.85C469.716 548.147 471.101 547.796 472.699 547.796C474.297 547.796 475.682 548.147 476.853 548.85C478.025 549.553 478.931 550.541 479.57 551.812C480.216 553.083 480.54 554.564 480.54 556.254C480.54 557.945 480.216 559.422 479.57 560.686C478.931 561.95 478.025 562.934 476.853 563.637C475.682 564.34 474.297 564.692 472.699 564.692ZM472.72 561.602C473.586 561.602 474.311 561.365 474.893 560.889C475.476 560.406 475.909 559.759 476.193 558.95C476.484 558.14 476.63 557.238 476.63 556.244C476.63 555.242 476.484 554.337 476.193 553.527C475.909 552.71 475.476 552.061 474.893 551.578C474.311 551.095 473.586 550.853 472.72 550.853C471.832 550.853 471.094 551.095 470.504 551.578C469.922 552.061 469.485 552.71 469.194 553.527C468.91 554.337 468.768 555.242 468.768 556.244C468.768 557.238 468.91 558.14 469.194 558.95C469.485 559.759 469.922 560.406 470.504 560.889C471.094 561.365 471.832 561.602 472.72 561.602ZM488.522 564.703C487.485 564.703 486.551 564.518 485.72 564.149C484.896 563.772 484.243 563.218 483.76 562.487C483.284 561.755 483.046 560.853 483.046 559.781C483.046 558.857 483.216 558.094 483.557 557.49C483.898 556.887 484.363 556.404 484.953 556.041C485.542 555.679 486.206 555.406 486.945 555.221C487.691 555.029 488.461 554.891 489.257 554.806C490.216 554.706 490.993 554.617 491.59 554.539C492.186 554.454 492.62 554.326 492.89 554.156C493.167 553.978 493.305 553.705 493.305 553.335V553.271C493.305 552.469 493.067 551.847 492.591 551.407C492.115 550.967 491.43 550.747 490.535 550.747C489.591 550.747 488.841 550.953 488.287 551.365C487.74 551.776 487.371 552.263 487.179 552.824L483.578 552.313C483.863 551.318 484.331 550.487 484.985 549.82C485.638 549.145 486.437 548.641 487.382 548.307C488.326 547.966 489.37 547.796 490.514 547.796C491.302 547.796 492.087 547.888 492.868 548.073C493.649 548.257 494.363 548.563 495.01 548.989C495.656 549.408 496.174 549.98 496.565 550.704C496.963 551.428 497.162 552.334 497.162 553.421V564.372H493.454V562.124H493.326C493.092 562.579 492.762 563.005 492.336 563.403C491.917 563.793 491.387 564.11 490.748 564.351C490.116 564.585 489.374 564.703 488.522 564.703ZM489.523 561.869C490.297 561.869 490.968 561.716 491.537 561.411C492.105 561.098 492.542 560.686 492.847 560.175C493.159 559.664 493.316 559.106 493.316 558.502V556.574C493.195 556.673 492.989 556.766 492.698 556.851C492.414 556.936 492.094 557.011 491.739 557.075C491.384 557.139 491.032 557.195 490.684 557.245C490.336 557.295 490.034 557.338 489.779 557.373C489.203 557.451 488.689 557.579 488.234 557.757C487.779 557.934 487.421 558.183 487.158 558.502C486.895 558.815 486.764 559.22 486.764 559.717C486.764 560.427 487.023 560.963 487.542 561.325C488.06 561.688 488.721 561.869 489.523 561.869ZM489.203 545.857L491.59 540.988H495.361L492.091 545.857H489.203ZM504.896 554.784V564.372H501.039V548.009H504.725V550.789H504.917C505.294 549.873 505.894 549.145 506.718 548.605C507.549 548.065 508.575 547.796 509.796 547.796C510.926 547.796 511.909 548.037 512.747 548.52C513.593 549.003 514.246 549.703 514.708 550.619C515.176 551.535 515.407 552.646 515.4 553.953V564.372H511.544V554.55C511.544 553.456 511.26 552.6 510.691 551.982C510.13 551.365 509.353 551.056 508.358 551.056C507.684 551.056 507.083 551.205 506.558 551.503C506.039 551.794 505.631 552.217 505.333 552.771C505.042 553.325 504.896 553.996 504.896 554.784Z" fill="#9B9B9B"/>
<path d="M655.226 603.311C612.195 646.007 547.5 676.797 480.128 686.646H480.136C454.071 690.457 380.635 687.975 353.274 682.37C265.089 664.289 187.046 618.221 139.002 555.899C117.728 528.305 96.2007 484.415 87.8214 451.544C75.954 404.989 78.1159 325.658 92.4672 280.792C99.1292 260.004 127.602 198.731 138.028 182.78C151.505 162.136 178.406 133.622 196.675 120.617C250.002 82.6457 313.555 67.4155 408.885 69.7617C436.032 70.4343 458.241 70.7545 458.241 70.4743C458.241 70.194 449.448 58.4949 438.708 44.4657C417.096 16.2472 417.096 14.934 438.776 8.64009C471.143 -0.744736 504.875 16.1031 528.671 53.5543C534.199 62.2425 539.726 68.6966 540.952 67.8959C542.194 67.0951 552.199 51.4964 563.185 33.2233C574.171 14.9501 583.753 0 584.482 0C585.21 0 592.531 5.99757 600.75 13.3245L615.683 26.657L593.175 52.4253C567.953 81.2685 567.156 86.9538 589.112 81.1723C618.382 73.4851 649.116 80.6438 673.571 100.871C685.515 110.752 702.972 134.847 700.25 137.689C699.369 138.618 677.888 137.898 652.527 136.088C627.167 134.278 605.955 133.277 605.403 133.862C604.843 134.438 614.84 143.439 627.62 153.865C701.109 213.809 740 292.923 740 382.472C740 468.304 708.445 550.502 655.226 603.311Z" fill="white"/>
<defs>
<filter id="filter0_d_509_961" x="0" y="35.3152" width="780" height="751.685" filterUnits="userSpaceOnUse" color-interpolation-filters="sRGB">
<feFlood flood-opacity="0" result="BackgroundImageFix"/>
<feColorMatrix in="SourceAlpha" type="matrix" values="0 0 0 0 0 0 0 0 0 0 0 0 0 0 0 0 0 0 127 0" result="hardAlpha"/>
<feOffset dy="20"/>
<feGaussianBlur stdDeviation="20"/>
<feComposite in2="hardAlpha" operator="out"/>
<feColorMatrix type="matrix" values="0 0 0 0 0 0 0 0 0 0 0 0 0 0 0 0 0 0 0.23 0"/>
<feBlend mode="normal" in2="BackgroundImageFix" result="effect1_dropShadow_509_961"/>
<feBlend mode="normal" in="SourceGraphic" in2="effect1_dropShadow_509_961" result="shape"/>
</filter>
</defs>
</svg>
