<svg width="30" height="30" viewBox="0 0 30 30" fill="none" xmlns="http://www.w3.org/2000/svg">
<path d="M6.96484 0.705078C7.13675 0.962154 7.3679 1.3186 7.61523 1.71289C7.86692 2.11412 8.10838 2.48779 8.29492 2.7666C8.38785 2.90549 8.46897 3.02447 8.53223 3.1123C8.56328 3.15542 8.59359 3.19539 8.62012 3.22852C8.63312 3.24475 8.64923 3.26497 8.66699 3.28418C8.67356 3.29129 8.71837 3.34054 8.78418 3.38184V3.38281C9.00109 3.51853 9.21174 3.4425 9.26562 3.4209C9.34077 3.39072 9.39889 3.34959 9.43164 3.32422C9.50236 3.2694 9.56974 3.19891 9.62793 3.13379C9.74923 2.99802 9.88969 2.81329 10.0244 2.61035C11.0296 1.09418 12.3644 0.52542 13.5605 0.857422V0.858398C13.6738 0.889923 13.7631 0.915507 13.833 0.9375C13.7239 1.09924 13.5547 1.31575 13.3076 1.625V1.62598C13.0629 1.93234 12.8399 2.214 12.6777 2.4209C12.5969 2.52407 12.5294 2.60938 12.4824 2.6709C12.4593 2.70123 12.439 2.72815 12.4238 2.74902C12.4167 2.75876 12.4081 2.77217 12.3994 2.78516C12.3956 2.79081 12.387 2.80353 12.3779 2.81934C12.3737 2.82664 12.3643 2.84329 12.3545 2.86523C12.3495 2.87625 12.341 2.89629 12.333 2.92188C12.33 2.93147 12.3242 2.95011 12.3193 2.97559L12.3105 3.07129L12.3164 3.1543C12.3461 3.33571 12.4672 3.43871 12.5098 3.4707C12.567 3.51362 12.6203 3.53397 12.6396 3.54102C12.6834 3.55691 12.7204 3.5629 12.7295 3.56445C12.7554 3.56885 12.7774 3.57072 12.7852 3.57129C12.8054 3.57276 12.8269 3.57381 12.8438 3.57422C12.8801 3.5751 12.9294 3.57522 12.9873 3.5752C13.1046 3.57515 13.2725 3.57411 13.4766 3.57129C13.8852 3.56563 14.4476 3.55471 15.0654 3.54004C19.3424 3.43915 22.1142 4.09544 24.4199 5.66895C25.0979 6.13148 26.0867 7.10499 26.7119 7.91211L26.9551 8.24609C27.168 8.55836 27.5955 9.36679 28.0186 10.2393C28.4398 11.108 28.8258 11.9749 28.9658 12.3936C29.2709 13.3075 29.4552 14.6073 29.4932 15.9424C29.531 17.2766 29.4209 18.5955 29.168 19.5469C28.8057 20.9088 27.8598 22.7589 26.9346 23.9092C24.8365 26.5177 21.4009 28.4738 17.4863 29.2432C16.9071 29.3569 15.7957 29.4447 14.6602 29.4814C13.5231 29.5182 12.4307 29.5013 11.8848 29.4248C8.90962 29.0079 6.06931 27.705 4.19922 25.9268C1.89127 23.7318 0.500007 20.2873 0.5 16.666C0.5 12.9327 2.18511 9.62535 5.41699 7.09863C5.71163 6.86826 5.97709 6.65103 6.16797 6.48633C6.26213 6.40507 6.34536 6.33148 6.40527 6.27246C6.43292 6.24522 6.46842 6.20847 6.49902 6.16992C6.5113 6.15446 6.54346 6.11313 6.57031 6.05664C6.58285 6.03026 6.61057 5.96614 6.61816 5.87988C6.62627 5.78705 6.61147 5.62088 6.47461 5.48242H6.47559L6.4707 5.47754H6.46973C6.40547 5.41422 6.34107 5.3831 6.31543 5.37207C6.28282 5.35806 6.25451 5.35083 6.23828 5.34668C6.20583 5.3384 6.17783 5.33468 6.16406 5.33301C6.13419 5.32938 6.10536 5.32787 6.08496 5.32715C6.04124 5.32561 5.98713 5.32527 5.92871 5.32617C5.8094 5.32803 5.64418 5.33391 5.44824 5.34277C5.05507 5.36057 4.52144 5.39106 3.94238 5.43066C3.46064 5.46361 3.0115 5.48666 2.65137 5.50098C2.8729 5.22243 3.13258 4.94448 3.33105 4.78711C4.32546 3.99895 5.56344 3.72627 6.7373 4.02148C6.98322 4.08355 7.23818 4.13583 7.44434 4.12305C7.54389 4.11683 7.72801 4.09152 7.88086 3.95117C8.06555 3.78151 8.08926 3.55845 8.06641 3.40332C8.04607 3.26577 7.98717 3.14365 7.93555 3.05273C7.87974 2.95444 7.80809 2.85039 7.72656 2.74316C7.5634 2.52859 7.33368 2.26375 7.04492 1.94727L6.36816 1.20605L6.65625 0.960938C6.76519 0.867852 6.87105 0.781732 6.96484 0.705078Z" fill="#FF7C7C" stroke="#471515"/>
</svg>
