<svg width="372" height="92" viewBox="0 0 372 92" fill="none" xmlns="http://www.w3.org/2000/svg">
<path d="M126.587 65V28.6364H140.223C143.017 28.6364 145.36 29.1572 147.254 30.1989C149.16 31.2405 150.598 32.6728 151.569 34.4957C152.551 36.3068 153.043 38.3665 153.043 40.6747C153.043 43.0066 152.551 45.0781 151.569 46.8892C150.586 48.7003 149.136 50.1267 147.219 51.1683C145.301 52.1982 142.94 52.7131 140.134 52.7131H131.097V47.2976H139.246C140.88 47.2976 142.218 47.0135 143.259 46.4453C144.301 45.8771 145.07 45.0959 145.567 44.1016C146.076 43.1072 146.331 41.965 146.331 40.6747C146.331 39.3845 146.076 38.2481 145.567 37.2656C145.07 36.2831 144.295 35.5196 143.241 34.9751C142.2 34.4188 140.856 34.1406 139.211 34.1406H133.174V65H126.587ZM169.986 65.5327C167.323 65.5327 165.014 64.9467 163.061 63.7749C161.108 62.603 159.593 60.9635 158.516 58.8565C157.45 56.7495 156.918 54.2874 156.918 51.4702C156.918 48.6529 157.45 46.1849 158.516 44.0661C159.593 41.9472 161.108 40.3018 163.061 39.13C165.014 37.9581 167.323 37.3722 169.986 37.3722C172.649 37.3722 174.958 37.9581 176.911 39.13C178.864 40.3018 180.373 41.9472 181.438 44.0661C182.516 46.1849 183.054 48.6529 183.054 51.4702C183.054 54.2874 182.516 56.7495 181.438 58.8565C180.373 60.9635 178.864 62.603 176.911 63.7749C174.958 64.9467 172.649 65.5327 169.986 65.5327ZM170.021 60.3835C171.466 60.3835 172.673 59.987 173.644 59.1939C174.614 58.389 175.336 57.3118 175.81 55.9624C176.295 54.6129 176.538 53.1096 176.538 51.4524C176.538 49.7834 176.295 48.2741 175.81 46.9247C175.336 45.5634 174.614 44.4804 173.644 43.6754C172.673 42.8705 171.466 42.468 170.021 42.468C168.542 42.468 167.311 42.8705 166.328 43.6754C165.358 44.4804 164.63 45.5634 164.144 46.9247C163.671 48.2741 163.434 49.7834 163.434 51.4524C163.434 53.1096 163.671 54.6129 164.144 55.9624C164.63 57.3118 165.358 58.389 166.328 59.1939C167.311 59.987 168.542 60.3835 170.021 60.3835ZM188.51 65V37.7273H194.653V42.3615H194.973C195.541 40.799 196.482 39.5798 197.796 38.7038C199.11 37.8161 200.678 37.3722 202.501 37.3722C204.348 37.3722 205.904 37.822 207.171 38.7216C208.449 39.6094 209.349 40.8227 209.87 42.3615H210.154C210.757 40.8464 211.775 39.639 213.208 38.7393C214.652 37.8279 216.362 37.3722 218.339 37.3722C220.849 37.3722 222.896 38.1652 224.483 39.7514C226.069 41.3376 226.862 43.6518 226.862 46.6939V65H220.417V47.6882C220.417 45.9955 219.967 44.7585 219.067 43.9773C218.167 43.1842 217.067 42.7876 215.765 42.7876C214.214 42.7876 213.001 43.273 212.125 44.2436C211.261 45.2024 210.828 46.4512 210.828 47.9901V65H204.525V47.4219C204.525 46.0133 204.099 44.8887 203.247 44.0483C202.406 43.2079 201.306 42.7876 199.944 42.7876C199.021 42.7876 198.181 43.0244 197.423 43.4979C196.665 43.9595 196.062 44.6165 195.612 45.4688C195.162 46.3092 194.937 47.2917 194.937 48.4162V65H188.51ZM245.279 65.5327C242.616 65.5327 240.307 64.9467 238.354 63.7749C236.401 62.603 234.886 60.9635 233.809 58.8565C232.743 56.7495 232.211 54.2874 232.211 51.4702C232.211 48.6529 232.743 46.1849 233.809 44.0661C234.886 41.9472 236.401 40.3018 238.354 39.13C240.307 37.9581 242.616 37.3722 245.279 37.3722C247.942 37.3722 250.251 37.9581 252.204 39.13C254.157 40.3018 255.666 41.9472 256.731 44.0661C257.809 46.1849 258.347 48.6529 258.347 51.4702C258.347 54.2874 257.809 56.7495 256.731 58.8565C255.666 60.9635 254.157 62.603 252.204 63.7749C250.251 64.9467 247.942 65.5327 245.279 65.5327ZM245.314 60.3835C246.759 60.3835 247.966 59.987 248.937 59.1939C249.907 58.389 250.629 57.3118 251.103 55.9624C251.588 54.6129 251.831 53.1096 251.831 51.4524C251.831 49.7834 251.588 48.2741 251.103 46.9247C250.629 45.5634 249.907 44.4804 248.937 43.6754C247.966 42.8705 246.759 42.468 245.314 42.468C243.835 42.468 242.604 42.8705 241.621 43.6754C240.651 44.4804 239.923 45.5634 239.437 46.9247C238.964 48.2741 238.727 49.7834 238.727 51.4524C238.727 53.1096 238.964 54.6129 239.437 55.9624C239.923 57.3118 240.651 58.389 241.621 59.1939C242.604 59.987 243.835 60.3835 245.314 60.3835ZM273.923 65.4794C271.781 65.4794 269.863 64.929 268.17 63.8281C266.478 62.7273 265.14 61.1293 264.158 59.0341C263.175 56.9389 262.684 54.3939 262.684 51.3991C262.684 48.3688 263.181 45.812 264.175 43.7287C265.182 41.6335 266.537 40.0533 268.241 38.9879C269.946 37.9107 271.846 37.3722 273.941 37.3722C275.539 37.3722 276.853 37.6444 277.883 38.1889C278.913 38.7216 279.729 39.3667 280.333 40.1243C280.937 40.87 281.404 41.5743 281.736 42.2372H282.002V28.6364H288.447V65H282.126V60.7031H281.736C281.404 61.366 280.925 62.0703 280.298 62.8161C279.67 63.55 278.842 64.1773 277.812 64.6982C276.782 65.219 275.486 65.4794 273.923 65.4794ZM275.717 60.206C277.078 60.206 278.238 59.839 279.197 59.1051C280.156 58.3594 280.884 57.3236 281.381 55.9979C281.878 54.6721 282.126 53.1274 282.126 51.3636C282.126 49.5999 281.878 48.067 281.381 46.7649C280.895 45.4628 280.173 44.4508 279.214 43.7287C278.268 43.0066 277.102 42.6456 275.717 42.6456C274.284 42.6456 273.089 43.0185 272.13 43.7642C271.171 44.5099 270.449 45.5398 269.964 46.8537C269.478 48.1676 269.236 49.6709 269.236 51.3636C269.236 53.0682 269.478 54.5893 269.964 55.9268C270.461 57.2526 271.189 58.3002 272.148 59.0696C273.118 59.8272 274.308 60.206 275.717 60.206ZM307.193 65.5327C304.53 65.5327 302.221 64.9467 300.268 63.7749C298.315 62.603 296.8 60.9635 295.723 58.8565C294.657 56.7495 294.125 54.2874 294.125 51.4702C294.125 48.6529 294.657 46.1849 295.723 44.0661C296.8 41.9472 298.315 40.3018 300.268 39.13C302.221 37.9581 304.53 37.3722 307.193 37.3722C309.856 37.3722 312.165 37.9581 314.118 39.13C316.071 40.3018 317.58 41.9472 318.645 44.0661C319.723 46.1849 320.261 48.6529 320.261 51.4702C320.261 54.2874 319.723 56.7495 318.645 58.8565C317.58 60.9635 316.071 62.603 314.118 63.7749C312.165 64.9467 309.856 65.5327 307.193 65.5327ZM307.229 60.3835C308.673 60.3835 309.88 59.987 310.851 59.1939C311.821 58.389 312.543 57.3118 313.017 55.9624C313.502 54.6129 313.745 53.1096 313.745 51.4524C313.745 49.7834 313.502 48.2741 313.017 46.9247C312.543 45.5634 311.821 44.4804 310.851 43.6754C309.88 42.8705 308.673 42.468 307.229 42.468C305.749 42.468 304.518 42.8705 303.535 43.6754C302.565 44.4804 301.837 45.5634 301.351 46.9247C300.878 48.2741 300.641 49.7834 300.641 51.4524C300.641 53.1096 300.878 54.6129 301.351 55.9624C301.837 57.3118 302.565 58.389 303.535 59.1939C304.518 59.987 305.749 60.3835 307.229 60.3835ZM325.717 65V37.7273H331.949V42.2727H332.233C332.73 40.6984 333.582 39.4851 334.79 38.6328C336.009 37.7687 337.4 37.3366 338.962 37.3366C339.317 37.3366 339.714 37.3544 340.152 37.3899C340.602 37.4136 340.975 37.455 341.271 37.5142V43.4268C340.998 43.3321 340.566 43.2493 339.974 43.1783C339.394 43.0954 338.832 43.054 338.288 43.054C337.116 43.054 336.062 43.3085 335.127 43.8175C334.204 44.3146 333.476 45.0071 332.943 45.8949C332.411 46.7827 332.144 47.8066 332.144 48.9666V65H325.717ZM356.314 65.5327C353.651 65.5327 351.343 64.9467 349.389 63.7749C347.436 62.603 345.921 60.9635 344.844 58.8565C343.779 56.7495 343.246 54.2874 343.246 51.4702C343.246 48.6529 343.779 46.1849 344.844 44.0661C345.921 41.9472 347.436 40.3018 349.389 39.13C351.343 37.9581 353.651 37.3722 356.314 37.3722C358.977 37.3722 361.286 37.9581 363.239 39.13C365.192 40.3018 366.701 41.9472 367.767 44.0661C368.844 46.1849 369.382 48.6529 369.382 51.4702C369.382 54.2874 368.844 56.7495 367.767 58.8565C366.701 60.9635 365.192 62.603 363.239 63.7749C361.286 64.9467 358.977 65.5327 356.314 65.5327ZM356.35 60.3835C357.794 60.3835 359.001 59.987 359.972 59.1939C360.942 58.389 361.664 57.3118 362.138 55.9624C362.623 54.6129 362.866 53.1096 362.866 51.4524C362.866 49.7834 362.623 48.2741 362.138 46.9247C361.664 45.5634 360.942 44.4804 359.972 43.6754C359.001 42.8705 357.794 42.468 356.35 42.468C354.87 42.468 353.639 42.8705 352.656 43.6754C351.686 44.4804 350.958 45.5634 350.472 46.9247C349.999 48.2741 349.762 49.7834 349.762 51.4524C349.762 53.1096 349.999 54.6129 350.472 55.9624C350.958 57.3118 351.686 58.389 352.656 59.1939C353.639 59.987 354.87 60.3835 356.35 60.3835Z" fill="#FF7C7C"/>
<path d="M23.7334 0.662109C23.9068 0.879947 24.1486 1.19954 24.4424 1.59961C25.0294 2.39915 25.8136 3.50564 26.6523 4.72363C27.4952 5.94754 28.3015 7.08311 28.9219 7.92773C29.2317 8.34947 29.4974 8.70171 29.6992 8.95703C29.7997 9.08414 29.8882 9.19187 29.96 9.27344C29.9955 9.31385 30.0315 9.35234 30.0654 9.38574C30.0885 9.40845 30.1465 9.46541 30.2217 9.50781C30.4419 9.63228 30.6571 9.5677 30.7383 9.53809C30.8407 9.5007 30.9345 9.44376 31.0098 9.39062C31.1646 9.2813 31.3389 9.12258 31.5176 8.94043C31.8796 8.57129 32.3179 8.0454 32.751 7.45117V7.4502C36.3049 2.56723 41.2752 0.448061 45.9834 1.63965C46.8265 1.85333 47.3983 2.01111 47.7617 2.18066C48.1203 2.34799 48.0974 2.43901 48.0967 2.4502C48.0968 2.49754 48.08 2.59641 47.9941 2.77051C47.9097 2.94179 47.7738 3.15577 47.5752 3.4248C47.1768 3.96433 46.5717 4.66562 45.7412 5.6123C44.9187 6.55022 44.1702 7.41066 43.627 8.04199C43.3556 8.35732 43.1344 8.61723 42.9805 8.80078C42.9039 8.8921 42.8415 8.96696 42.7979 9.02148C42.7767 9.04796 42.7567 9.07431 42.7402 9.09668C42.7327 9.10693 42.72 9.12365 42.708 9.14258C42.7025 9.15131 42.6913 9.16971 42.6797 9.19336C42.6739 9.20518 42.6637 9.22643 42.6543 9.25391C42.6474 9.27415 42.627 9.33566 42.627 9.41699C42.627 9.67276 42.8062 9.80402 42.8457 9.83105C42.9029 9.87015 42.955 9.88769 42.9727 9.89355C43.0144 9.90739 43.0498 9.91337 43.0605 9.91504C43.0894 9.9195 43.1174 9.92079 43.1338 9.92188C43.1711 9.92434 43.2185 9.92658 43.2705 9.92773C43.3774 9.9301 43.531 9.93074 43.7236 9.93066C44.1103 9.93051 44.6674 9.92562 45.3525 9.91699C46.7236 9.89972 48.6139 9.86723 50.6924 9.82227C65.2339 9.50982 74.8517 11.5402 82.8994 16.543C85.6403 18.2463 89.7128 22.0126 91.7402 24.7236V24.7246C92.5116 25.7549 93.9835 28.3007 95.4023 30.9658C96.6425 33.2953 97.8146 35.6641 98.4209 37.126L98.6445 37.6943C99.7178 40.6238 100.345 44.7144 100.475 48.8613C100.604 53.008 100.234 57.1567 99.3457 60.1992C98.0852 64.5159 94.8275 70.3167 91.6162 73.9531C84.3531 82.1782 72.5189 88.2904 59.1055 90.6914C57.0505 91.0589 53.2252 91.3286 49.3955 91.4414C45.5644 91.5543 41.7922 91.5089 39.8398 91.2598H39.8408C29.6073 89.9537 19.8023 85.8705 13.3037 80.2412C5.27517 73.2861 0.500097 62.4444 0.5 51.1094C0.5 39.3316 6.35112 28.9008 17.4912 20.9678C18.4735 20.2681 19.3522 19.6147 19.9766 19.124C20.2874 18.8797 20.5416 18.67 20.7158 18.5137C20.8003 18.4379 20.8793 18.3627 20.9375 18.2959C20.9629 18.2667 21.008 18.2136 21.043 18.1465C21.0592 18.1154 21.0932 18.0434 21.1025 17.9463C21.1133 17.8346 21.0896 17.6542 20.9355 17.5156C20.8692 17.4561 20.8033 17.4287 20.7783 17.4189C20.7452 17.406 20.7163 17.3977 20.6982 17.3936C20.6619 17.3851 20.6277 17.3815 20.6045 17.3789C20.5559 17.3735 20.4999 17.37 20.4434 17.3682C20.3274 17.3644 20.1691 17.3645 19.9785 17.3672C19.5949 17.3726 19.0538 17.39 18.3984 17.417C17.0866 17.4711 15.3005 17.5655 13.3574 17.6865C11.4209 17.8072 9.63446 17.8911 8.31738 17.9297C7.6582 17.949 7.12087 17.9567 6.74316 17.9521C6.72804 17.952 6.71275 17.9504 6.69824 17.9502C6.70574 17.937 6.71259 17.923 6.7207 17.9092C6.9217 17.5665 7.25476 17.1104 7.66895 16.6113C8.49875 15.6115 9.5937 14.5111 10.4609 13.8848C14.0878 11.266 18.6443 10.3393 22.9834 11.334C23.8206 11.5265 24.5071 11.6415 24.9873 11.6143C25.2206 11.601 25.5002 11.5507 25.7148 11.3711C25.9731 11.155 26.0299 10.8503 25.9863 10.5811C25.9471 10.339 25.826 10.0913 25.6777 9.85352C25.5242 9.60715 25.314 9.32901 25.0557 9.01953C24.5387 8.40026 23.7932 7.61685 22.8262 6.65137L19.7822 3.60742L21.6221 2.1748L21.6211 2.17383C22.246 1.68748 22.8358 1.24751 23.2803 0.929688C23.4473 0.810231 23.5923 0.710972 23.709 0.632812C23.7166 0.642328 23.7254 0.65205 23.7334 0.662109Z" fill="#FF7C7C" stroke="#471515"/>
</svg>
