<svg width="244" height="50" viewBox="0 0 244 50" fill="none" xmlns="http://www.w3.org/2000/svg">
<path d="M11.8838 0.986328C12.1729 1.41853 12.5602 2.01805 12.9746 2.67871C13.3927 3.34527 13.7929 3.96448 14.1016 4.42578C14.2556 4.65595 14.389 4.85031 14.4912 4.99219C14.5417 5.06225 14.5879 5.12409 14.627 5.17285C14.6463 5.19693 14.6683 5.22311 14.6904 5.24707C14.7016 5.25913 14.7507 5.31345 14.8203 5.35645V5.35547C15.0411 5.49211 15.2562 5.41748 15.3184 5.39258C15.4021 5.359 15.4701 5.31089 15.5146 5.27637C15.6089 5.20331 15.7069 5.10481 15.7988 5.00195C15.9876 4.79066 16.2112 4.49518 16.4297 4.16602C18.1563 1.56157 20.514 0.504282 22.6914 1.10938C23.1159 1.2275 23.3704 1.30637 23.5215 1.38379C23.5264 1.38632 23.5308 1.38926 23.5352 1.3916C23.5317 1.40012 23.5301 1.4105 23.5254 1.4209C23.4908 1.49795 23.4316 1.60236 23.3369 1.74316C23.146 2.02704 22.8522 2.40046 22.4395 2.91699C22.032 3.42705 21.6611 3.89542 21.3916 4.23926C21.257 4.41096 21.1464 4.55337 21.0693 4.6543C21.0312 4.70418 20.9997 4.74662 20.9766 4.77832C20.9655 4.7935 20.9531 4.8111 20.9424 4.82715C20.9376 4.83428 20.9284 4.84781 20.9189 4.86426C20.9145 4.87193 20.9046 4.88968 20.8945 4.91211C20.8895 4.92331 20.881 4.94323 20.873 4.96875C20.8701 4.97834 20.8643 4.99699 20.8594 5.02246L20.8506 5.11816L20.8564 5.20117C20.8862 5.38349 21.0085 5.48686 21.0508 5.51855C21.1084 5.56173 21.1616 5.58193 21.1807 5.58887C21.2247 5.60487 21.2617 5.61162 21.2715 5.61328C21.2988 5.6179 21.3228 5.61937 21.333 5.62012C21.3583 5.62196 21.3873 5.62337 21.4141 5.62402C21.4705 5.62539 21.5495 5.62602 21.6455 5.62598C21.8388 5.62589 22.1164 5.62286 22.4561 5.61816C23.1359 5.60876 24.0723 5.59085 25.1016 5.56641C32.2681 5.39736 36.9666 6.4962 40.8887 9.17285C42.2172 10.0793 44.2123 12.1039 45.2012 13.5557C45.5721 14.0996 46.2935 15.4691 46.9971 16.9199C47.6112 18.1862 48.1876 19.4645 48.4834 20.2471L48.5918 20.5508C49.1143 22.1164 49.4236 24.3175 49.4873 26.5605C49.551 28.803 49.3684 31.0364 48.9355 32.6641C48.3193 34.981 46.7205 38.1067 45.1504 40.0586C41.5961 44.4773 35.7952 47.7709 29.208 49.0654C28.2141 49.2606 26.3389 49.4075 24.4443 49.4688C22.7852 49.5224 21.164 49.5085 20.1543 49.416L19.7607 49.3721L19.291 49.3018C14.445 48.5308 9.84364 46.3765 6.76855 43.4521C2.84758 39.7231 0.5 33.891 0.5 27.7764C0.500084 21.4418 3.364 15.8364 8.82324 11.5684C9.31146 11.1866 9.74958 10.8286 10.0625 10.5586C10.2177 10.4247 10.3494 10.3064 10.4414 10.2158C10.485 10.1729 10.5324 10.1239 10.5703 10.0762C10.5862 10.0561 10.6211 10.0107 10.6494 9.95117C10.6626 9.92336 10.6915 9.85861 10.6992 9.77148C10.7075 9.67779 10.692 9.5102 10.5547 9.37109H10.5557L10.5527 9.36914C10.5519 9.36833 10.5516 9.36702 10.5508 9.36621H10.5498C10.4853 9.30251 10.4198 9.27205 10.3936 9.26074C10.3603 9.24644 10.3315 9.23776 10.3145 9.2334C10.2803 9.22468 10.2501 9.22078 10.2334 9.21875C10.1977 9.21441 10.1606 9.21202 10.1299 9.21094C10.0654 9.20867 9.98156 9.20945 9.88574 9.21094C9.69181 9.21395 9.42101 9.22258 9.0957 9.2373C8.44361 9.26682 7.55716 9.31887 6.59375 9.38477C5.63734 9.45017 4.75628 9.49577 4.1084 9.5166C3.97445 9.52091 3.85134 9.52326 3.74023 9.52539C3.81564 9.41228 3.9052 9.28812 4.00488 9.15625C4.40977 8.62067 4.93818 8.04012 5.34473 7.71777L5.34375 7.7168C6.97115 6.42677 8.9806 5.92423 10.9238 6.29395L11.3115 6.37988C11.7236 6.48386 12.1013 6.55776 12.3867 6.54004C12.5259 6.53134 12.7387 6.4963 12.9092 6.33984C13.1114 6.15412 13.1426 5.90802 13.1152 5.72168C13.0903 5.55273 13.0152 5.39059 12.9365 5.25195C12.8537 5.10605 12.7435 4.94596 12.6123 4.77344C12.3498 4.42823 11.9749 3.99654 11.4951 3.4707L10.1367 1.97949L10.876 1.34668C11.1779 1.0887 11.4625 0.855901 11.6777 0.686523C11.7377 0.773386 11.808 0.872949 11.8838 0.986328Z" fill="#FF7C7C" stroke="#471515"/>
<path d="M67.9265 39V13.5455H78.4414C80.3472 13.5455 81.992 13.9183 83.3757 14.6641C84.7678 15.4015 85.8408 16.4331 86.5948 17.7589C87.3488 19.0763 87.7259 20.6093 87.7259 22.3576C87.7259 24.1142 87.3406 25.6513 86.57 26.9688C85.8076 28.2779 84.718 29.293 83.3011 30.0138C81.8842 30.7347 80.2022 31.0952 78.255 31.0952H71.767V26.2479H77.1115C78.0395 26.2479 78.8143 26.0863 79.4357 25.7631C80.0655 25.44 80.5419 24.9884 80.8651 24.4084C81.1882 23.8201 81.3498 23.1365 81.3498 22.3576C81.3498 21.5704 81.1882 20.891 80.8651 20.3192C80.5419 19.7392 80.0655 19.2918 79.4357 18.9769C78.806 18.6621 78.0313 18.5046 77.1115 18.5046H74.0788V39H67.9265ZM99.2941 39.3604C97.2889 39.3604 95.5654 38.9503 94.1237 38.13C92.6902 37.3014 91.584 36.1496 90.8051 34.6747C90.0345 33.1915 89.6492 31.4722 89.6492 29.5167C89.6492 27.5529 90.0345 25.8336 90.8051 24.3587C91.584 22.8755 92.6902 21.7237 94.1237 20.9034C95.5654 20.0748 97.2889 19.6605 99.2941 19.6605C101.299 19.6605 103.019 20.0748 104.452 20.9034C105.894 21.7237 107 22.8755 107.771 24.3587C108.55 25.8336 108.939 27.5529 108.939 29.5167C108.939 31.4722 108.55 33.1915 107.771 34.6747C107 36.1496 105.894 37.3014 104.452 38.13C103.019 38.9503 101.299 39.3604 99.2941 39.3604ZM99.3314 34.7741C100.061 34.7741 100.678 34.5504 101.183 34.103C101.689 33.6555 102.074 33.0341 102.339 32.2386C102.613 31.4432 102.749 30.5234 102.749 29.4794C102.749 28.4188 102.613 27.4908 102.339 26.6953C102.074 25.8999 101.689 25.2784 101.183 24.831C100.678 24.3835 100.061 24.1598 99.3314 24.1598C98.5774 24.1598 97.9394 24.3835 97.4173 24.831C96.9036 25.2784 96.51 25.8999 96.2366 26.6953C95.9714 27.4908 95.8389 28.4188 95.8389 29.4794C95.8389 30.5234 95.9714 31.4432 96.2366 32.2386C96.51 33.0341 96.9036 33.6555 97.4173 34.103C97.9394 34.5504 98.5774 34.7741 99.3314 34.7741ZM112.052 39V19.9091H117.832V23.4141H118.043C118.441 22.254 119.112 21.3384 120.057 20.6673C121.001 19.9961 122.128 19.6605 123.437 19.6605C124.763 19.6605 125.898 20.0002 126.843 20.6797C127.788 21.3591 128.388 22.2706 128.645 23.4141H128.844C129.2 22.2789 129.896 21.3716 130.932 20.6921C131.968 20.0044 133.19 19.6605 134.599 19.6605C136.405 19.6605 137.872 20.2405 138.998 21.4006C140.125 22.5523 140.689 24.1349 140.689 26.1484V39H134.611V27.5405C134.611 26.5876 134.367 25.8626 133.878 25.3654C133.389 24.86 132.755 24.6072 131.976 24.6072C131.139 24.6072 130.48 24.8807 130 25.4276C129.528 25.9661 129.291 26.6912 129.291 27.6026V39H123.45V27.4783C123.45 26.5917 123.21 25.8916 122.729 25.3778C122.248 24.8641 121.614 24.6072 120.827 24.6072C120.297 24.6072 119.829 24.7357 119.423 24.9925C119.017 25.2411 118.698 25.5974 118.466 26.0614C118.242 26.5254 118.13 27.0723 118.13 27.7021V39H112.052ZM153.366 39.3604C151.361 39.3604 149.638 38.9503 148.196 38.13C146.762 37.3014 145.656 36.1496 144.877 34.6747C144.107 33.1915 143.722 31.4722 143.722 29.5167C143.722 27.5529 144.107 25.8336 144.877 24.3587C145.656 22.8755 146.762 21.7237 148.196 20.9034C149.638 20.0748 151.361 19.6605 153.366 19.6605C155.372 19.6605 157.091 20.0748 158.524 20.9034C159.966 21.7237 161.072 22.8755 161.843 24.3587C162.622 25.8336 163.011 27.5529 163.011 29.5167C163.011 31.4722 162.622 33.1915 161.843 34.6747C161.072 36.1496 159.966 37.3014 158.524 38.13C157.091 38.9503 155.372 39.3604 153.366 39.3604ZM153.404 34.7741C154.133 34.7741 154.75 34.5504 155.256 34.103C155.761 33.6555 156.146 33.0341 156.411 32.2386C156.685 31.4432 156.822 30.5234 156.822 29.4794C156.822 28.4188 156.685 27.4908 156.411 26.6953C156.146 25.8999 155.761 25.2784 155.256 24.831C154.75 24.3835 154.133 24.1598 153.404 24.1598C152.65 24.1598 152.012 24.3835 151.49 24.831C150.976 25.2784 150.582 25.8999 150.309 26.6953C150.044 27.4908 149.911 28.4188 149.911 29.4794C149.911 30.5234 150.044 31.4432 150.309 32.2386C150.582 33.0341 150.976 33.6555 151.49 34.103C152.012 34.5504 152.65 34.7741 153.404 34.7741ZM173.097 39.2734C171.689 39.2734 170.409 38.9089 169.257 38.1797C168.105 37.4505 167.185 36.3568 166.498 34.8984C165.81 33.4401 165.466 31.6296 165.466 29.467C165.466 27.2215 165.822 25.3737 166.535 23.9237C167.247 22.4736 168.18 21.4006 169.331 20.7045C170.491 20.0085 171.738 19.6605 173.073 19.6605C174.075 19.6605 174.933 19.8345 175.645 20.1825C176.358 20.5223 176.946 20.9614 177.41 21.5C177.874 22.0386 178.226 22.5979 178.467 23.1779H178.591V13.5455H184.669V39H178.653V35.9052H178.467C178.21 36.4935 177.845 37.0445 177.373 37.5582C176.901 38.072 176.308 38.4863 175.596 38.8011C174.891 39.116 174.059 39.2734 173.097 39.2734ZM175.21 34.538C175.948 34.538 176.578 34.3308 177.1 33.9165C177.622 33.494 178.023 32.9015 178.305 32.1392C178.587 31.3769 178.728 30.482 178.728 29.4545C178.728 28.4105 178.587 27.5115 178.305 26.7575C178.032 26.0034 177.63 25.4234 177.1 25.0174C176.578 24.6114 175.948 24.4084 175.21 24.4084C174.456 24.4084 173.818 24.6155 173.296 25.0298C172.774 25.4441 172.377 26.0283 172.103 26.7823C171.838 27.5363 171.705 28.4271 171.705 29.4545C171.705 30.482 171.842 31.3769 172.116 32.1392C172.389 32.9015 172.783 33.494 173.296 33.9165C173.818 34.3308 174.456 34.538 175.21 34.538ZM197.424 39.3604C195.419 39.3604 193.695 38.9503 192.254 38.13C190.82 37.3014 189.714 36.1496 188.935 34.6747C188.164 33.1915 187.779 31.4722 187.779 29.5167C187.779 27.5529 188.164 25.8336 188.935 24.3587C189.714 22.8755 190.82 21.7237 192.254 20.9034C193.695 20.0748 195.419 19.6605 197.424 19.6605C199.429 19.6605 201.149 20.0748 202.582 20.9034C204.024 21.7237 205.13 22.8755 205.901 24.3587C206.679 25.8336 207.069 27.5529 207.069 29.5167C207.069 31.4722 206.679 33.1915 205.901 34.6747C205.13 36.1496 204.024 37.3014 202.582 38.13C201.149 38.9503 199.429 39.3604 197.424 39.3604ZM197.461 34.7741C198.19 34.7741 198.808 34.5504 199.313 34.103C199.819 33.6555 200.204 33.0341 200.469 32.2386C200.743 31.4432 200.879 30.5234 200.879 29.4794C200.879 28.4188 200.743 27.4908 200.469 26.6953C200.204 25.8999 199.819 25.2784 199.313 24.831C198.808 24.3835 198.19 24.1598 197.461 24.1598C196.707 24.1598 196.069 24.3835 195.547 24.831C195.033 25.2784 194.64 25.8999 194.366 26.6953C194.101 27.4908 193.969 28.4188 193.969 29.4794C193.969 30.5234 194.101 31.4432 194.366 32.2386C194.64 33.0341 195.033 33.6555 195.547 34.103C196.069 34.5504 196.707 34.7741 197.461 34.7741ZM210.182 39V19.9091H216.086V23.3892H216.285C216.633 22.1297 217.201 21.1934 217.988 20.5803C218.775 19.9588 219.691 19.6481 220.735 19.6481C221.016 19.6481 221.306 19.6688 221.605 19.7102C221.903 19.7434 222.18 19.7972 222.437 19.8718V25.1541C222.147 25.0547 221.766 24.976 221.294 24.918C220.83 24.86 220.416 24.831 220.051 24.831C219.33 24.831 218.68 24.9925 218.1 25.3157C217.528 25.6306 217.076 26.0739 216.745 26.6456C216.422 27.209 216.26 27.8719 216.26 28.6342V39H210.182ZM232.834 39.3604C230.829 39.3604 229.105 38.9503 227.664 38.13C226.23 37.3014 225.124 36.1496 224.345 34.6747C223.575 33.1915 223.189 31.4722 223.189 29.5167C223.189 27.5529 223.575 25.8336 224.345 24.3587C225.124 22.8755 226.23 21.7237 227.664 20.9034C229.105 20.0748 230.829 19.6605 232.834 19.6605C234.839 19.6605 236.559 20.0748 237.992 20.9034C239.434 21.7237 240.54 22.8755 241.311 24.3587C242.09 25.8336 242.479 27.5529 242.479 29.5167C242.479 31.4722 242.09 33.1915 241.311 34.6747C240.54 36.1496 239.434 37.3014 237.992 38.13C236.559 38.9503 234.839 39.3604 232.834 39.3604ZM232.871 34.7741C233.601 34.7741 234.218 34.5504 234.723 34.103C235.229 33.6555 235.614 33.0341 235.879 32.2386C236.153 31.4432 236.289 30.5234 236.289 29.4794C236.289 28.4188 236.153 27.4908 235.879 26.6953C235.614 25.8999 235.229 25.2784 234.723 24.831C234.218 24.3835 233.601 24.1598 232.871 24.1598C232.117 24.1598 231.479 24.3835 230.957 24.831C230.444 25.2784 230.05 25.8999 229.777 26.6953C229.511 27.4908 229.379 28.4188 229.379 29.4794C229.379 30.5234 229.511 31.4432 229.777 32.2386C230.05 33.0341 230.444 33.6555 230.957 34.103C231.479 34.5504 232.117 34.7741 232.871 34.7741Z" fill="#FF7C7C"/>
</svg>
