<svg width="70" height="70" viewBox="0 0 70 70" fill="none" xmlns="http://www.w3.org/2000/svg">
<circle cx="35" cy="35" r="34.5" fill="white" stroke="#471515"/>
<path d="M34.5 22.2919C35.3284 22.2919 36 21.6203 36 20.7919C36 19.9635 35.3284 19.2919 34.5 19.2919V20.7919V22.2919ZM23.7876 45.2955C24.3756 45.8791 25.3254 45.8754 25.9089 45.2874C26.4925 44.6994 26.4888 43.7496 25.9008 43.1661L24.8442 44.2308L23.7876 45.2955ZM31.2936 25.8348C30.8341 26.5241 31.0203 27.4554 31.7096 27.915C32.3989 28.3745 33.3302 28.1882 33.7897 27.4989L32.5417 26.6669L31.2936 25.8348ZM36.4583 20.7919L37.7064 21.6239C38.1659 20.9346 37.9797 20.0033 37.2904 19.5438L36.4583 20.7919ZM31.4154 15.6271C30.7261 15.1676 29.7948 15.3539 29.3353 16.0432C28.8757 16.7325 29.062 17.6638 29.7513 18.1233L30.5833 16.8752L31.4154 15.6271ZM34.5 46.6474C33.6716 46.6474 33 47.319 33 48.1474C33 48.9758 33.6716 49.6474 34.5 49.6474V48.1474V46.6474ZM45.2124 23.6438C44.6243 23.0603 43.6746 23.0639 43.0911 23.6519C42.5075 24.24 42.5112 25.1897 43.0992 25.7732L44.1558 24.7085L45.2124 23.6438ZM37.7064 43.1656C38.1659 42.4763 37.9797 41.545 37.2904 41.0855C36.6011 40.6259 35.6698 40.8122 35.2103 41.5015L36.4583 42.3336L37.7064 43.1656ZM32.5417 48.2086L31.2936 47.3765C30.8341 48.0658 31.0203 48.9971 31.7096 49.4566L32.5417 48.2086ZM37.5846 53.3733C38.2739 53.8328 39.2052 53.6466 39.6647 52.9573C40.1243 52.268 39.938 51.3367 39.2487 50.8771L38.4167 52.1252L37.5846 53.3733ZM34.5 20.7919V19.2919C26.1007 19.2919 19.2917 26.1009 19.2917 34.5002H20.7917H22.2917C22.2917 27.7577 27.7575 22.2919 34.5 22.2919V20.7919ZM20.7917 34.5002H19.2917C19.2917 38.7206 21.0127 42.5418 23.7876 45.2955L24.8442 44.2308L25.9008 43.1661C23.6702 40.9525 22.2917 37.8888 22.2917 34.5002H20.7917ZM32.5417 26.6669L33.7897 27.4989L37.7064 21.6239L36.4583 20.7919L35.2103 19.9598L31.2936 25.8348L32.5417 26.6669ZM36.4583 20.7919L37.2904 19.5438L31.4154 15.6271L30.5833 16.8752L29.7513 18.1233L35.6263 22.04L36.4583 20.7919ZM34.5 48.1474V49.6474C42.8993 49.6474 49.7083 42.8384 49.7083 34.4391H48.2083H46.7083C46.7083 41.1816 41.2425 46.6474 34.5 46.6474V48.1474ZM48.2083 34.4391H49.7083C49.7083 30.2187 47.9873 26.3975 45.2124 23.6438L44.1558 24.7085L43.0992 25.7732C45.3298 27.9868 46.7083 31.0505 46.7083 34.4391H48.2083ZM36.4583 42.3336L35.2103 41.5015L31.2936 47.3765L32.5417 48.2086L33.7897 49.0406L37.7064 43.1656L36.4583 42.3336ZM32.5417 48.2086L31.7096 49.4566L37.5846 53.3733L38.4167 52.1252L39.2487 50.8771L33.3737 46.9605L32.5417 48.2086Z" fill="#BF1919"/>
</svg>
