<svg width="31" height="39" viewBox="0 0 31 39" fill="none" xmlns="http://www.w3.org/2000/svg">
<path d="M15.2083 6.91677C16.0368 6.91677 16.7083 6.24519 16.7083 5.41677C16.7083 4.58834 16.0368 3.91677 15.2083 3.91677V5.41677V6.91677ZM4.49596 29.9204C5.08398 30.5039 6.03373 30.5003 6.61726 29.9123C7.2008 29.3242 7.19716 28.3745 6.60913 27.791L5.55254 28.8557L4.49596 29.9204ZM12.0019 10.4597C11.5424 11.149 11.7287 12.0803 12.418 12.5398C13.1072 12.9994 14.0385 12.8131 14.4981 12.1238L13.25 11.2918L12.0019 10.4597ZM17.1667 5.41677L18.4147 6.24882C18.8743 5.55952 18.688 4.62822 17.9987 4.16869L17.1667 5.41677ZM12.1237 0.252023C11.4344 -0.207505 10.5031 -0.0212446 10.0436 0.668048C9.58406 1.35734 9.77032 2.28865 10.4596 2.74817L11.2917 1.5001L12.1237 0.252023ZM15.2083 31.2723C14.3799 31.2723 13.7083 31.9439 13.7083 32.7723C13.7083 33.6007 14.3799 34.2723 15.2083 34.2723V32.7723V31.2723ZM25.9207 8.26867C25.3327 7.68513 24.3829 7.68877 23.7994 8.2768C23.2159 8.86483 23.2195 9.81457 23.8075 10.3981L24.8641 9.33339L25.9207 8.26867ZM18.4147 27.7905C18.8743 27.1012 18.688 26.1699 17.9987 25.7104C17.3094 25.2508 16.3781 25.4371 15.9186 26.1264L17.1667 26.9584L18.4147 27.7905ZM13.25 32.8334L12.0019 32.0014C11.5424 32.6907 11.7287 33.622 12.418 34.0815L13.25 32.8334ZM18.293 37.9982C18.9822 38.4577 19.9135 38.2714 20.3731 37.5821C20.8326 36.8929 20.6463 35.9616 19.9571 35.502L19.125 36.7501L18.293 37.9982ZM15.2083 5.41677V3.91677C6.809 3.91677 2.38419e-06 10.7258 2.38419e-06 19.1251H1.5H3C3 12.3826 8.46586 6.91677 15.2083 6.91677V5.41677ZM1.5 19.1251H2.38419e-06C2.38419e-06 23.3455 1.72107 27.1667 4.49596 29.9204L5.55254 28.8557L6.60913 27.791C4.37856 25.5774 3 22.5137 3 19.1251H1.5ZM13.25 11.2918L14.4981 12.1238L18.4147 6.24882L17.1667 5.41677L15.9186 4.58472L12.0019 10.4597L13.25 11.2918ZM17.1667 5.41677L17.9987 4.16869L12.1237 0.252023L11.2917 1.5001L10.4596 2.74817L16.3346 6.66484L17.1667 5.41677ZM15.2083 32.7723V34.2723C23.6077 34.2723 30.4167 27.4633 30.4167 19.064H28.9167H27.4167C27.4167 25.8064 21.9508 31.2723 15.2083 31.2723V32.7723ZM28.9167 19.064H30.4167C30.4167 14.8436 28.6956 11.0224 25.9207 8.26867L24.8641 9.33339L23.8075 10.3981C26.0381 12.6116 27.4167 15.6754 27.4167 19.064H28.9167ZM17.1667 26.9584L15.9186 26.1264L12.0019 32.0014L13.25 32.8334L14.4981 33.6655L18.4147 27.7905L17.1667 26.9584ZM13.25 32.8334L12.418 34.0815L18.293 37.9982L19.125 36.7501L19.9571 35.502L14.0821 31.5854L13.25 32.8334Z" fill="#BF1919"/>
</svg>
