<svg width="50" height="50" viewBox="0 0 50 50" fill="none" xmlns="http://www.w3.org/2000/svg">
<g clip-path="url(#clip0_320_1578)">
<path d="M24.9987 31.25C28.4505 31.25 31.2487 28.4518 31.2487 25C31.2487 21.5483 28.4505 18.75 24.9987 18.75C21.5469 18.75 18.7487 21.5483 18.7487 25C18.7487 28.4518 21.5469 31.25 24.9987 31.25Z" stroke="#FF7C7C" stroke-width="3.5" stroke-linecap="round" stroke-linejoin="round"/>
<path d="M40.4154 31.25C40.138 31.8784 40.0553 32.5754 40.1779 33.2513C40.3004 33.9271 40.6226 34.5507 41.1029 35.0417L41.2279 35.1667C41.6153 35.5537 41.9226 36.0132 42.1323 36.519C42.342 37.0249 42.4499 37.5671 42.4499 38.1146C42.4499 38.6622 42.342 39.2044 42.1323 39.7102C41.9226 40.216 41.6153 40.6756 41.2279 41.0625C40.8409 41.4499 40.3814 41.7573 39.8755 41.967C39.3697 42.1766 38.8275 42.2846 38.2799 42.2846C37.7324 42.2846 37.1902 42.1766 36.6844 41.967C36.1785 41.7573 35.719 41.4499 35.332 41.0625L35.207 40.9375C34.716 40.4573 34.0924 40.1351 33.4166 40.0125C32.7408 39.89 32.0437 39.9727 31.4154 40.25C30.7992 40.5141 30.2737 40.9526 29.9035 41.5116C29.5333 42.0705 29.3347 42.7255 29.332 43.3959V43.75C29.332 44.8551 28.893 45.9149 28.1116 46.6963C27.3302 47.4777 26.2704 47.9167 25.1654 47.9167C24.0603 47.9167 23.0005 47.4777 22.2191 46.6963C21.4377 45.9149 20.9987 44.8551 20.9987 43.75V43.5625C20.9826 42.873 20.7594 42.2042 20.3581 41.6432C19.9568 41.0821 19.3961 40.6548 18.7487 40.4167C18.1203 40.1394 17.4233 40.0567 16.7475 40.1792C16.0716 40.3017 15.448 40.6239 14.957 41.1042L14.832 41.2292C14.4451 41.6166 13.9855 41.9239 13.4797 42.1336C12.9739 42.3433 12.4317 42.4512 11.8841 42.4512C11.3365 42.4512 10.7944 42.3433 10.2885 42.1336C9.7827 41.9239 9.32317 41.6166 8.9362 41.2292C8.5488 40.8422 8.24147 40.3827 8.03178 39.8769C7.8221 39.371 7.71417 38.8289 7.71417 38.2813C7.71417 37.7337 7.8221 37.1915 8.03178 36.6857C8.24147 36.1799 8.5488 35.7203 8.9362 35.3334L9.0612 35.2084C9.54148 34.7174 9.86367 34.0938 9.98621 33.4179C10.1087 32.7421 10.026 32.0451 9.7487 31.4167C9.48461 30.8005 9.0461 30.275 8.48717 29.9048C7.92823 29.5347 7.27325 29.336 6.60286 29.3334H6.2487C5.14363 29.3334 4.08382 28.8944 3.30242 28.113C2.52102 27.3316 2.08203 26.2718 2.08203 25.1667C2.08203 24.0616 2.52102 23.0018 3.30242 22.2204C4.08382 21.439 5.14363 21 6.2487 21H6.4362C7.12577 20.9839 7.79454 20.7607 8.35557 20.3594C8.9166 19.9582 9.34394 19.3974 9.58203 18.75C9.85935 18.1217 9.94208 17.4246 9.81954 16.7488C9.697 16.073 9.37482 15.4494 8.89453 14.9584L8.76953 14.8334C8.38213 14.4464 8.0748 13.9869 7.86512 13.481C7.65543 12.9752 7.5475 12.433 7.5475 11.8855C7.5475 11.3379 7.65543 10.7957 7.86512 10.2899C8.0748 9.78405 8.38213 9.32451 8.76953 8.93754C9.1565 8.55014 9.61604 8.24281 10.1219 8.03312C10.6277 7.82344 11.1699 7.71551 11.7174 7.71551C12.265 7.71551 12.8072 7.82344 13.313 8.03312C13.8189 8.24281 14.2784 8.55014 14.6654 8.93754L14.7904 9.06254C15.2814 9.54282 15.905 9.86501 16.5808 9.98755C17.2566 10.1101 17.9537 10.0274 18.582 9.75004H18.7487C19.3649 9.48595 19.8904 9.04745 20.2606 8.48851C20.6307 7.92957 20.8294 7.2746 20.832 6.60421V6.25004C20.832 5.14497 21.271 4.08516 22.0524 3.30376C22.8338 2.52236 23.8936 2.08337 24.9987 2.08337C26.1038 2.08337 27.1636 2.52236 27.945 3.30376C28.7264 4.08516 29.1654 5.14497 29.1654 6.25004V6.43754C29.168 7.10793 29.3667 7.76291 29.7368 8.32184C30.107 8.88078 30.6325 9.31928 31.2487 9.58337C31.8771 9.8607 32.5741 9.94342 33.2499 9.82088C33.9257 9.69834 34.5494 9.37616 35.0404 8.89587L35.1654 8.77087C35.5523 8.38347 36.0119 8.07614 36.5177 7.86646C37.0235 7.65677 37.5657 7.54885 38.1133 7.54885C38.6608 7.54885 39.203 7.65677 39.7089 7.86646C40.2147 8.07614 40.6742 8.38347 41.0612 8.77087C41.4486 9.15784 41.7559 9.61738 41.9656 10.1232C42.1753 10.629 42.2832 11.1712 42.2832 11.7188C42.2832 12.2664 42.1753 12.8085 41.9656 13.3144C41.7559 13.8202 41.4486 14.2797 41.0612 14.6667L40.9362 14.7917C40.4559 15.2827 40.1337 15.9063 40.0112 16.5821C39.8886 17.258 39.9714 17.955 40.2487 18.5834V18.75C40.5128 19.3662 40.9513 19.8917 41.5102 20.2619C42.0692 20.6321 42.7241 20.8307 43.3945 20.8334H43.7487C44.8538 20.8334 45.9136 21.2724 46.695 22.0538C47.4764 22.8352 47.9154 23.895 47.9154 25C47.9154 26.1051 47.4764 27.1649 46.695 27.9463C45.9136 28.7277 44.8538 29.1667 43.7487 29.1667H43.5612C42.8908 29.1694 42.2358 29.368 41.6769 29.7382C41.118 30.1083 40.6794 30.6339 40.4154 31.25Z" stroke="#FF7C7C" stroke-width="3.5" stroke-linecap="round" stroke-linejoin="round"/>
</g>
<defs>
<clipPath id="clip0_320_1578">
<rect width="50" height="50" fill="white"/>
</clipPath>
</defs>
</svg>
