<svg width="50" height="50" viewBox="0 0 50 50" fill="none" xmlns="http://www.w3.org/2000/svg">
<path d="M4.16536 25C4.16536 36.5059 13.4928 45.8333 24.9987 45.8333C36.5046 45.8333 45.832 36.5059 45.832 25C45.832 13.494 36.5046 4.16663 24.9987 4.16663C13.4928 4.16663 4.16536 13.494 4.16536 25Z" stroke="#FF7C7C" stroke-width="4" stroke-linecap="round" stroke-linejoin="round"/>
<path d="M12.4987 25C12.4987 31.9035 18.0951 37.5 24.9987 37.5C31.9023 37.5 37.4987 31.9035 37.4987 25C37.4987 18.0964 31.9023 12.5 24.9987 12.5C18.0951 12.5 12.4987 18.0964 12.4987 25Z" stroke="#FF7C7C" stroke-width="4" stroke-linecap="round" stroke-linejoin="round"/>
<path d="M20.832 25C20.832 27.3011 22.6975 29.1666 24.9987 29.1666C27.2999 29.1666 29.1654 27.3011 29.1654 25C29.1654 22.6988 27.2999 20.8333 24.9987 20.8333C22.6975 20.8333 20.832 22.6988 20.832 25Z" stroke="#FF7C7C" stroke-width="4" stroke-linecap="round" stroke-linejoin="round"/>
</svg>
