<svg width="40" height="40" viewBox="0 0 40 40" fill="none" xmlns="http://www.w3.org/2000/svg">
<path d="M9.42383 0.844727C9.65439 1.18946 9.96375 1.66834 10.2949 2.19629C10.6298 2.73013 10.9507 3.22666 11.1982 3.59668C11.3216 3.78104 11.4291 3.93697 11.5117 4.05176C11.5527 4.1086 11.5911 4.16011 11.624 4.20117C11.6401 4.22128 11.6588 4.2441 11.6787 4.26562C11.6876 4.2752 11.7352 4.32777 11.8037 4.37012V4.36914C12.0222 4.50442 12.2341 4.43044 12.292 4.40723C12.3712 4.37546 12.4339 4.33075 12.4727 4.30078C12.5552 4.23683 12.6388 4.15239 12.7139 4.06836C12.869 3.89477 13.0509 3.65384 13.2275 3.3877C14.5935 1.32741 16.4392 0.514789 18.126 0.983398C18.3999 1.05961 18.5777 1.11472 18.6943 1.16211C18.6687 1.20885 18.6341 1.2673 18.5859 1.33887C18.436 1.56186 18.2048 1.85749 17.874 2.27148C17.5478 2.67982 17.25 3.05467 17.0342 3.33008C16.9265 3.46748 16.8384 3.58188 16.7764 3.66309C16.7457 3.70318 16.7194 3.7374 16.7002 3.76367C16.6911 3.7761 16.6806 3.79117 16.6709 3.80566C16.6667 3.812 16.6578 3.82547 16.6484 3.8418C16.6442 3.84924 16.634 3.86639 16.624 3.88867C16.619 3.89981 16.6105 3.91987 16.6025 3.94531C16.5995 3.95495 16.5938 3.97363 16.5889 3.99902L16.5801 4.09473L16.5869 4.17773C16.6167 4.35986 16.7381 4.46346 16.7803 4.49512C16.8378 4.53827 16.8911 4.5585 16.9102 4.56543C16.9536 4.58121 16.9901 4.58718 17 4.58887C17.0269 4.59343 17.0507 4.59506 17.0596 4.5957C17.0822 4.59735 17.1072 4.5981 17.1289 4.59863C17.1753 4.59976 17.2394 4.60062 17.3164 4.60059C17.4717 4.60052 17.694 4.59849 17.9658 4.59473C18.5102 4.5872 19.2601 4.5723 20.084 4.55273C25.6269 4.42201 29.3049 5.24216 32.3604 7.22559L32.6543 7.4209C33.7059 8.13832 35.2933 9.74843 36.0781 10.9004V10.9014C36.3701 11.3295 36.9446 12.4177 37.5078 13.5791C37.9993 14.5926 38.4578 15.612 38.6924 16.2324L38.7793 16.4727C39.1929 17.7124 39.4394 19.4632 39.4902 21.252C39.541 23.0402 39.3946 24.8161 39.0518 26.1055C38.5625 27.945 37.2907 30.4333 36.043 31.9844C33.2167 35.4981 28.5977 38.1224 23.3467 39.1543C22.5601 39.3087 21.0677 39.4256 19.5527 39.4746C18.2254 39.5175 16.9339 39.5068 16.1338 39.4336L15.8223 39.3984C11.8261 38.8384 8.00552 37.0879 5.4834 34.6895C2.36908 31.7275 0.500093 27.0894 0.5 22.2217C0.5 17.1876 2.77436 12.7304 7.12012 9.33301C7.51155 9.02695 7.86334 8.73981 8.11523 8.52246C8.23986 8.41492 8.34691 8.31895 8.42285 8.24414C8.45846 8.20906 8.4999 8.16619 8.53418 8.12305C8.54822 8.10536 8.58177 8.06192 8.60938 8.00391C8.62223 7.97685 8.6505 7.91268 8.6582 7.82617C8.66642 7.73294 8.65183 7.56562 8.51465 7.42676H8.51562C8.51492 7.42604 8.5134 7.42551 8.5127 7.4248C8.51188 7.42399 8.51156 7.42269 8.51074 7.42188H8.50977C8.44537 7.35836 8.38046 7.32758 8.35449 7.31641C8.32154 7.30225 8.29302 7.2943 8.27637 7.29004C8.24329 7.2816 8.21452 7.27726 8.19922 7.27539C8.1664 7.2714 8.13301 7.27043 8.10742 7.26953C8.0533 7.26763 7.98438 7.26736 7.90723 7.26855C7.75065 7.27099 7.53301 7.27825 7.27246 7.29004C6.74983 7.31369 6.03987 7.35545 5.26855 7.4082C4.50418 7.46048 3.80006 7.49607 3.2832 7.5127C3.25185 7.5137 3.22121 7.51281 3.19141 7.51367C3.22109 7.47249 3.25117 7.42844 3.28418 7.38477C3.60542 6.95989 4.02194 6.50247 4.33789 6.25195C5.70304 5.17 7.40689 4.79409 9.02441 5.20117C9.35365 5.28426 9.67012 5.34641 9.91602 5.33105C10.0354 5.32359 10.2338 5.29402 10.3955 5.14551C10.5889 4.96776 10.616 4.73323 10.5908 4.5625C10.5682 4.40917 10.5007 4.26716 10.4355 4.15234C10.3662 4.03032 10.2752 3.89856 10.1689 3.75879C10.0626 3.61895 9.93419 3.46165 9.78418 3.28711L9.26953 2.70898L8.25293 1.59277L8.7666 1.1543L8.76562 1.15332C8.96892 0.979615 9.16233 0.820741 9.32031 0.694336C9.35203 0.740964 9.38757 0.79051 9.42383 0.844727Z" fill="#FF7C7C" stroke="#471515"/>
</svg>
