<svg width="101" height="92" viewBox="0 0 101 92" fill="none" xmlns="http://www.w3.org/2000/svg">
<path d="M23.7334 0.662109C23.9068 0.879947 24.1486 1.19954 24.4424 1.59961C25.0294 2.39915 25.8136 3.50564 26.6523 4.72363C27.4952 5.94754 28.3015 7.08311 28.9219 7.92773C29.2317 8.34947 29.4974 8.70171 29.6992 8.95703C29.7997 9.08414 29.8882 9.19187 29.96 9.27344C29.9955 9.31385 30.0315 9.35234 30.0654 9.38574C30.0885 9.40845 30.1465 9.46541 30.2217 9.50781C30.4419 9.63228 30.6571 9.5677 30.7383 9.53809C30.8407 9.5007 30.9345 9.44376 31.0098 9.39062C31.1646 9.2813 31.3389 9.12258 31.5176 8.94043C31.8796 8.57129 32.3179 8.0454 32.751 7.45117V7.4502C36.3049 2.56723 41.2752 0.448061 45.9834 1.63965C46.8265 1.85333 47.3983 2.01111 47.7617 2.18066C48.1203 2.34799 48.0974 2.43901 48.0967 2.4502C48.0968 2.49754 48.08 2.59641 47.9941 2.77051C47.9097 2.94179 47.7738 3.15577 47.5752 3.4248C47.1768 3.96433 46.5717 4.66562 45.7412 5.6123C44.9187 6.55022 44.1702 7.41066 43.627 8.04199C43.3556 8.35732 43.1344 8.61723 42.9805 8.80078C42.9039 8.8921 42.8415 8.96696 42.7979 9.02148C42.7767 9.04796 42.7567 9.07431 42.7402 9.09668C42.7327 9.10693 42.72 9.12365 42.708 9.14258C42.7025 9.15131 42.6913 9.16971 42.6797 9.19336C42.6739 9.20518 42.6637 9.22643 42.6543 9.25391C42.6474 9.27415 42.627 9.33566 42.627 9.41699C42.627 9.67276 42.8062 9.80402 42.8457 9.83105C42.9029 9.87015 42.955 9.88769 42.9727 9.89355C43.0144 9.90739 43.0498 9.91337 43.0605 9.91504C43.0894 9.9195 43.1174 9.92079 43.1338 9.92188C43.1711 9.92434 43.2185 9.92658 43.2705 9.92773C43.3774 9.9301 43.531 9.93074 43.7236 9.93066C44.1103 9.93051 44.6674 9.92562 45.3525 9.91699C46.7236 9.89972 48.6139 9.86723 50.6924 9.82227C65.2339 9.50982 74.8517 11.5402 82.8994 16.543C85.6403 18.2463 89.7128 22.0126 91.7402 24.7236V24.7246C92.5116 25.7549 93.9835 28.3007 95.4023 30.9658C96.6425 33.2953 97.8146 35.6641 98.4209 37.126L98.6445 37.6943C99.7178 40.6238 100.345 44.7144 100.475 48.8613C100.604 53.008 100.234 57.1567 99.3457 60.1992C98.0852 64.5159 94.8275 70.3167 91.6162 73.9531C84.3531 82.1782 72.5189 88.2904 59.1055 90.6914C57.0505 91.0589 53.2252 91.3286 49.3955 91.4414C45.5644 91.5543 41.7922 91.5089 39.8398 91.2598H39.8408C29.6073 89.9537 19.8023 85.8705 13.3037 80.2412C5.27517 73.2861 0.500097 62.4444 0.5 51.1094C0.5 39.3316 6.35112 28.9008 17.4912 20.9678C18.4735 20.2681 19.3522 19.6147 19.9766 19.124C20.2874 18.8797 20.5416 18.67 20.7158 18.5137C20.8003 18.4379 20.8793 18.3627 20.9375 18.2959C20.9629 18.2667 21.008 18.2136 21.043 18.1465C21.0592 18.1154 21.0932 18.0434 21.1025 17.9463C21.1133 17.8346 21.0896 17.6542 20.9355 17.5156C20.8692 17.4561 20.8033 17.4287 20.7783 17.4189C20.7452 17.406 20.7163 17.3977 20.6982 17.3936C20.6619 17.3851 20.6277 17.3815 20.6045 17.3789C20.5559 17.3735 20.4999 17.37 20.4434 17.3682C20.3274 17.3644 20.1691 17.3645 19.9785 17.3672C19.5949 17.3726 19.0538 17.39 18.3984 17.417C17.0866 17.4711 15.3005 17.5655 13.3574 17.6865C11.4209 17.8072 9.63446 17.8911 8.31738 17.9297C7.6582 17.949 7.12087 17.9567 6.74316 17.9521C6.72804 17.952 6.71275 17.9504 6.69824 17.9502C6.70574 17.937 6.71259 17.923 6.7207 17.9092C6.9217 17.5665 7.25476 17.1104 7.66895 16.6113C8.49875 15.6115 9.5937 14.5111 10.4609 13.8848C14.0878 11.266 18.6443 10.3393 22.9834 11.334C23.8206 11.5265 24.5071 11.6415 24.9873 11.6143C25.2206 11.601 25.5002 11.5507 25.7148 11.3711C25.9731 11.155 26.0299 10.8503 25.9863 10.5811C25.9471 10.339 25.826 10.0913 25.6777 9.85352C25.5242 9.60715 25.314 9.32901 25.0557 9.01953C24.5387 8.40026 23.7932 7.61685 22.8262 6.65137L19.7822 3.60742L21.6221 2.1748L21.6211 2.17383C22.246 1.68748 22.8358 1.24751 23.2803 0.929688C23.4473 0.810231 23.5923 0.710972 23.709 0.632812C23.7166 0.642328 23.7254 0.65205 23.7334 0.662109Z" fill="#FF7C7C" stroke="#471515"/>
</svg>
